<?xml version="1.0" encoding="utf-8"?>
<!-- Generator: Adobe Illustrator 23.1.1, SVG Export Plug-In . SVG Version: 6.00 Build 0)  -->
<svg version="1.1" id="レイヤー_1" xmlns:sketch="http://www.bohemiancoding.com/sketch/ns"
	 xmlns="http://www.w3.org/2000/svg" xmlns:xlink="http://www.w3.org/1999/xlink" x="0px" y="0px" viewBox="0 0 135 40"
	 style="enable-background:new 0 0 135 40;" xml:space="preserve">
<style type="text/css">
	.st0{fill-rule:evenodd;clip-rule:evenodd;fill:#A6A6A6;}
	.st1{fill-rule:evenodd;clip-rule:evenodd;}
	.st2{fill-rule:evenodd;clip-rule:evenodd;fill:#FFFFFF;}
</style>
<title>app store</title>
<desc>Created with Sketch.</desc>
<g id="Page-1" sketch:type="MSPage">
	<g id="app-store" sketch:type="MSLayerGroup">
		<g id="Group" sketch:type="MSShapeGroup">
			<path id="Shape" class="st0" d="M130.2,40H4.7C2.1,40,0,37.9,0,35.3V4.7C0,2.1,2.1,0,4.7,0h125.5c2.6,0,4.8,2.1,4.8,4.7v30.5
				C135,37.9,132.8,40,130.2,40L130.2,40L130.2,40z"/>
			<path class="st1" d="M134,35.3c0,2.1-1.7,3.8-3.8,3.8H4.7c-2.1,0-3.8-1.7-3.8-3.8V4.7c0-2.1,1.7-3.8,3.8-3.8h125.5
				c2.1,0,3.8,1.7,3.8,3.8L134,35.3L134,35.3L134,35.3z"/>
			<g transform="translate(12.000000, 6.000000)">
				<path class="st2" d="M18.1,13.8c0-3.2,2.6-4.8,2.8-4.9c-1.5-2.2-3.9-2.5-4.7-2.5c-2-0.2-3.9,1.2-4.9,1.2c-1,0-2.6-1.2-4.2-1.1
					C5,6.5,3,7.7,1.9,9.6c-2.3,3.9-0.6,9.7,1.6,12.9c1.1,1.6,2.4,3.3,4,3.2c1.6-0.1,2.2-1,4.2-1c1.9,0,2.5,1,4.2,1
					c1.7,0,2.8-1.6,3.9-3.1c1.3-1.8,1.8-3.5,1.8-3.6C21.5,18.9,18.2,17.6,18.1,13.8L18.1,13.8z"/>
				<path class="st2" d="M14.9,4.3c0.9-1.1,1.5-2.6,1.3-4.1c-1.3,0.1-2.8,0.9-3.8,1.9c-0.8,0.9-1.5,2.5-1.3,3.9
					C12.6,6.2,14,5.4,14.9,4.3L14.9,4.3z"/>
			</g>
			<g transform="translate(42.000000, 18.000000)">
				<path class="st2" d="M11.6,13.5H9.4L8.1,9.6H3.8l-1.2,3.9H0.4L4.7,0.2h2.6L11.6,13.5L11.6,13.5z M7.8,8L6.6,4.5
					C6.5,4.1,6.3,3.3,6,2h0C5.8,2.5,5.6,3.4,5.3,4.5L4.2,8H7.8L7.8,8z"/>
				<path class="st2" d="M22.7,8.6c0,1.6-0.4,2.9-1.3,3.9c-0.8,0.8-1.8,1.3-2.9,1.3c-1.3,0-2.2-0.5-2.7-1.4h0v5.1h-2.1V7.1
					c0-1,0-2.1-0.1-3.2h1.9l0.1,1.5h0c0.7-1.1,1.8-1.7,3.2-1.7c1.1,0,2.1,0.4,2.8,1.3C22.3,5.9,22.7,7.1,22.7,8.6L22.7,8.6z
					 M20.5,8.7c0-0.9-0.2-1.7-0.6-2.3c-0.5-0.6-1.1-0.9-1.9-0.9c-0.5,0-1,0.2-1.4,0.5c-0.4,0.3-0.7,0.8-0.8,1.4
					c-0.1,0.3-0.1,0.5-0.1,0.7v1.6c0,0.7,0.2,1.3,0.6,1.8c0.4,0.5,1,0.7,1.7,0.7c0.8,0,1.4-0.3,1.9-0.9C20.3,10.5,20.5,9.7,20.5,8.7
					L20.5,8.7z"/>
				<path class="st2" d="M33.7,8.6c0,1.6-0.4,2.9-1.3,3.9c-0.8,0.8-1.8,1.3-2.9,1.3c-1.3,0-2.2-0.5-2.7-1.4h0v5.1h-2.1V7.1
					c0-1,0-2.1-0.1-3.2h1.9l0.1,1.5h0c0.7-1.1,1.8-1.7,3.2-1.7c1.1,0,2.1,0.4,2.8,1.3C33.3,5.9,33.7,7.1,33.7,8.6L33.7,8.6z
					 M31.5,8.7c0-0.9-0.2-1.7-0.6-2.3c-0.5-0.6-1.1-0.9-1.9-0.9c-0.5,0-1,0.2-1.4,0.5c-0.4,0.3-0.7,0.8-0.8,1.4
					c-0.1,0.3-0.1,0.5-0.1,0.7v1.6c0,0.7,0.2,1.3,0.6,1.8c0.4,0.5,1,0.7,1.7,0.7c0.8,0,1.4-0.3,1.9-0.9C31.3,10.5,31.5,9.7,31.5,8.7
					L31.5,8.7z"/>
				<path class="st2" d="M46,9.8c0,1.1-0.4,2.1-1.2,2.8c-0.9,0.8-2.1,1.2-3.6,1.2c-1.4,0-2.6-0.3-3.4-0.8l0.5-1.8
					c0.9,0.6,2,0.8,3.1,0.8c0.8,0,1.4-0.2,1.9-0.5c0.4-0.4,0.7-0.8,0.7-1.5c0-0.5-0.2-1-0.6-1.4c-0.4-0.4-1-0.7-1.8-1
					C39.2,6.7,38,5.4,38,3.7c0-1.1,0.4-2,1.2-2.7c0.8-0.7,1.9-1,3.3-1c1.2,0,2.2,0.2,3,0.6L45,2.4c-0.8-0.4-1.6-0.6-2.5-0.6
					c-0.8,0-1.3,0.2-1.8,0.6c-0.4,0.3-0.5,0.7-0.5,1.2c0,0.5,0.2,1,0.6,1.3c0.4,0.3,1,0.7,1.9,1c1.1,0.5,2,1,2.5,1.6
					C45.8,8.1,46,8.9,46,9.8L46,9.8z"/>
				<path class="st2" d="M53.1,5.5h-2.4v4.7c0,1.2,0.4,1.8,1.2,1.8c0.4,0,0.7,0,0.9-0.1l0.1,1.6c-0.4,0.2-1,0.2-1.7,0.2
					c-0.8,0-1.5-0.3-2-0.8c-0.5-0.5-0.7-1.4-0.7-2.6V5.5h-1.4V3.9h1.4V2.1l2.1-0.6v2.4h2.4V5.5L53.1,5.5z"/>
				<path class="st2" d="M63.7,8.6c0,1.5-0.4,2.7-1.3,3.6c-0.9,1-2.1,1.5-3.5,1.5c-1.4,0-2.5-0.5-3.4-1.4c-0.8-0.9-1.3-2.1-1.3-3.5
					c0-1.5,0.4-2.7,1.3-3.7c0.9-0.9,2-1.4,3.5-1.4c1.4,0,2.5,0.5,3.4,1.4C63.3,6,63.7,7.2,63.7,8.6L63.7,8.6z M61.5,8.7
					c0-0.9-0.2-1.6-0.6-2.3c-0.4-0.8-1.1-1.1-1.9-1.1c-0.9,0-1.5,0.4-2,1.1c-0.4,0.6-0.6,1.4-0.6,2.3c0,0.9,0.2,1.6,0.6,2.3
					c0.5,0.8,1.1,1.1,1.9,1.1c0.8,0,1.5-0.4,1.9-1.2C61.3,10.3,61.5,9.6,61.5,8.7L61.5,8.7z"/>
				<path class="st2" d="M70.6,5.8c-0.2,0-0.4-0.1-0.7-0.1c-0.8,0-1.3,0.3-1.7,0.8c-0.4,0.5-0.5,1.1-0.5,1.9v5h-2.1l0-6.6
					c0-1.1,0-2.1-0.1-3h1.9l0.1,1.8h0.1c0.2-0.6,0.6-1.1,1.1-1.5c0.5-0.3,1-0.5,1.5-0.5c0.2,0,0.4,0,0.5,0V5.8L70.6,5.8z"/>
				<path class="st2" d="M80.2,8.3c0,0.4,0,0.7-0.1,1h-6.4c0,0.9,0.3,1.7,0.9,2.2c0.5,0.4,1.2,0.7,2.1,0.7c0.9,0,1.8-0.2,2.6-0.5
					l0.3,1.5c-0.9,0.4-2,0.6-3.2,0.6c-1.5,0-2.7-0.4-3.5-1.3c-0.8-0.9-1.3-2.1-1.3-3.5c0-1.4,0.4-2.7,1.2-3.6c0.8-1,1.9-1.5,3.4-1.5
					c1.4,0,2.4,0.5,3.1,1.5C79.9,6,80.2,7.1,80.2,8.3L80.2,8.3z M78.1,7.7c0-0.6-0.1-1.2-0.4-1.6c-0.4-0.6-0.9-0.9-1.7-0.9
					c-0.7,0-1.3,0.3-1.7,0.9c-0.4,0.5-0.6,1-0.6,1.7L78.1,7.7L78.1,7.7z"/>
			</g>
			<g transform="translate(43.000000, 6.000000)">
				<path class="st2" d="M6.1,4c0,1.2-0.4,2.1-1.1,2.7C4.3,7.2,3.4,7.5,2.2,7.5c-0.6,0-1.1,0-1.5-0.1V1c0.6-0.1,1.2-0.1,1.8-0.1
					c1.1,0,2,0.2,2.6,0.7C5.7,2.2,6.1,3,6.1,4L6.1,4z M4.9,4c0-0.8-0.2-1.3-0.6-1.8c-0.4-0.4-1-0.6-1.8-0.6c-0.3,0-0.6,0-0.8,0.1
					v4.9c0.1,0,0.4,0,0.7,0c0.8,0,1.4-0.2,1.9-0.7S4.9,4.9,4.9,4L4.9,4z"/>
				<path class="st2" d="M11.9,5c0,0.7-0.2,1.3-0.6,1.8c-0.4,0.5-1,0.7-1.7,0.7c-0.7,0-1.2-0.2-1.7-0.7c-0.4-0.5-0.6-1-0.6-1.7
					c0-0.7,0.2-1.3,0.6-1.8c0.4-0.5,1-0.7,1.7-0.7c0.7,0,1.2,0.2,1.7,0.7C11.7,3.8,11.9,4.3,11.9,5L11.9,5z M10.8,5.1
					c0-0.4-0.1-0.8-0.3-1.1C10.3,3.6,10,3.4,9.6,3.4c-0.4,0-0.7,0.2-1,0.6C8.5,4.3,8.4,4.6,8.4,5.1c0,0.4,0.1,0.8,0.3,1.1
					c0.2,0.4,0.5,0.6,1,0.6c0.4,0,0.7-0.2,0.9-0.6C10.7,5.9,10.8,5.5,10.8,5.1L10.8,5.1z"/>
				<path class="st2" d="M19.8,2.7l-1.5,4.7h-1l-0.6-2c-0.2-0.5-0.3-1-0.4-1.5h0c-0.1,0.5-0.2,1-0.4,1.5l-0.6,2h-1l-1.4-4.7H14
					L14.5,5c0.1,0.5,0.2,1,0.3,1.5h0C15,6.1,15.1,5.6,15.3,5l0.7-2.2h0.9l0.6,2.2c0.2,0.5,0.3,1.1,0.4,1.6h0c0.1-0.5,0.2-1,0.3-1.6
					l0.6-2.2L19.8,2.7L19.8,2.7z"/>
				<path class="st2" d="M25.2,7.4h-1V4.7c0-0.8-0.3-1.2-0.9-1.2c-0.3,0-0.6,0.1-0.8,0.3c-0.2,0.2-0.3,0.5-0.3,0.8v2.8h-1V4.1
					c0-0.4,0-0.9,0-1.3H22l0,0.7h0c0.1-0.2,0.3-0.4,0.5-0.6c0.3-0.2,0.6-0.3,1-0.3c0.4,0,0.8,0.1,1.1,0.4c0.4,0.3,0.5,0.9,0.5,1.6
					V7.4L25.2,7.4z"/>
				<path class="st2" d="M28.1,7.4h-1V0.6h1V7.4L28.1,7.4z"/>
				<path class="st2" d="M34.3,5c0,0.7-0.2,1.3-0.6,1.8c-0.4,0.5-1,0.7-1.7,0.7c-0.7,0-1.2-0.2-1.7-0.7c-0.4-0.5-0.6-1-0.6-1.7
					c0-0.7,0.2-1.3,0.6-1.8c0.4-0.5,1-0.7,1.7-0.7c0.7,0,1.2,0.2,1.7,0.7C34.1,3.8,34.3,4.3,34.3,5L34.3,5z M33.2,5.1
					c0-0.4-0.1-0.8-0.3-1.1c-0.2-0.4-0.5-0.6-0.9-0.6c-0.4,0-0.7,0.2-1,0.6c-0.2,0.3-0.3,0.7-0.3,1.1c0,0.4,0.1,0.8,0.3,1.1
					c0.2,0.4,0.5,0.6,1,0.6c0.4,0,0.7-0.2,0.9-0.6C33.1,5.9,33.2,5.5,33.2,5.1L33.2,5.1z"/>
				<path class="st2" d="M39.3,7.4h-0.9l-0.1-0.5h0c-0.3,0.4-0.8,0.7-1.4,0.7c-0.4,0-0.8-0.1-1.1-0.4c-0.2-0.3-0.4-0.6-0.4-1
					c0-0.6,0.2-1,0.7-1.3c0.5-0.3,1.2-0.5,2-0.4V4.3c0-0.6-0.3-0.9-1-0.9c-0.5,0-0.9,0.1-1.2,0.3L35.8,3c0.4-0.3,1-0.4,1.6-0.4
					c1.2,0,1.9,0.7,1.9,2v1.7C39.3,6.8,39.3,7.2,39.3,7.4L39.3,7.4z M38.2,5.8V5.1c-1.2,0-1.7,0.3-1.7,0.9c0,0.2,0.1,0.4,0.2,0.6
					c0.1,0.1,0.3,0.2,0.5,0.2c0.2,0,0.4-0.1,0.6-0.2c0.2-0.1,0.3-0.3,0.4-0.6C38.2,5.9,38.2,5.9,38.2,5.8L38.2,5.8z"/>
				<path class="st2" d="M45.3,7.4h-0.9l0-0.8h0c-0.3,0.6-0.8,0.9-1.5,0.9c-0.6,0-1-0.2-1.4-0.7c-0.4-0.4-0.6-1-0.6-1.7
					c0-0.8,0.2-1.4,0.6-1.9c0.4-0.4,0.9-0.7,1.5-0.7c0.6,0,1.1,0.2,1.3,0.6h0V0.6h1v5.6C45.2,6.6,45.3,7,45.3,7.4L45.3,7.4z
					 M44.2,5.4V4.7c0-0.1,0-0.2,0-0.3c-0.1-0.3-0.2-0.5-0.4-0.6c-0.2-0.2-0.4-0.3-0.7-0.3c-0.4,0-0.7,0.2-0.9,0.5
					c-0.2,0.3-0.3,0.7-0.3,1.2c0,0.5,0.1,0.8,0.3,1.1c0.2,0.3,0.5,0.5,0.9,0.5c0.3,0,0.6-0.1,0.8-0.4C44.1,6.1,44.2,5.8,44.2,5.4
					L44.2,5.4z"/>
				<path class="st2" d="M54.2,5c0,0.7-0.2,1.3-0.6,1.8c-0.4,0.5-1,0.7-1.7,0.7c-0.7,0-1.2-0.2-1.7-0.7c-0.4-0.5-0.6-1-0.6-1.7
					c0-0.7,0.2-1.3,0.6-1.8s1-0.7,1.7-0.7c0.7,0,1.2,0.2,1.7,0.7C54,3.8,54.2,4.3,54.2,5L54.2,5z M53.2,5.1c0-0.4-0.1-0.8-0.3-1.1
					c-0.2-0.4-0.5-0.6-0.9-0.6c-0.4,0-0.7,0.2-1,0.6c-0.2,0.3-0.3,0.7-0.3,1.1c0,0.4,0.1,0.8,0.3,1.1c0.2,0.4,0.5,0.6,1,0.6
					c0.4,0,0.7-0.2,0.9-0.6C53.1,5.9,53.2,5.5,53.2,5.1L53.2,5.1z"/>
				<path class="st2" d="M59.9,7.4h-1V4.7c0-0.8-0.3-1.2-1-1.2c-0.3,0-0.6,0.1-0.8,0.3s-0.3,0.5-0.3,0.8v2.8h-1V4.1
					c0-0.4,0-0.9,0-1.3h0.9l0,0.7h0c0.1-0.2,0.3-0.4,0.5-0.6c0.3-0.2,0.6-0.3,1-0.3c0.4,0,0.8,0.1,1.1,0.4c0.4,0.3,0.5,0.9,0.5,1.6
					V7.4L59.9,7.4z"/>
				<path class="st2" d="M66.9,3.5h-1.2v2.3c0,0.6,0.2,0.9,0.6,0.9c0.2,0,0.3,0,0.5,0l0,0.8c-0.2,0.1-0.5,0.1-0.8,0.1
					c-0.4,0-0.7-0.1-1-0.4c-0.2-0.3-0.3-0.7-0.3-1.3V3.5h-0.7V2.7h0.7V1.9l1-0.3v1.2h1.2L66.9,3.5L66.9,3.5z"/>
				<path class="st2" d="M72.5,7.4h-1V4.8c0-0.8-0.3-1.3-0.9-1.3c-0.5,0-0.8,0.2-1,0.7c0,0.1,0,0.2,0,0.4v2.8h-1V0.6h1v2.8h0
					c0.3-0.5,0.8-0.8,1.4-0.8c0.4,0,0.8,0.1,1.1,0.4c0.4,0.4,0.5,0.9,0.5,1.6V7.4L72.5,7.4z"/>
				<path class="st2" d="M78.2,4.9c0,0.2,0,0.3,0,0.5H75c0,0.5,0.2,0.8,0.5,1.1c0.3,0.2,0.6,0.3,1,0.3c0.5,0,0.9-0.1,1.3-0.2
					l0.2,0.7c-0.4,0.2-1,0.3-1.6,0.3c-0.7,0-1.3-0.2-1.7-0.6c-0.4-0.4-0.6-1-0.6-1.7c0-0.7,0.2-1.3,0.6-1.8c0.4-0.5,1-0.8,1.6-0.8
					c0.7,0,1.2,0.3,1.5,0.8C78.1,3.8,78.2,4.3,78.2,4.9L78.2,4.9z M77.2,4.6c0-0.3-0.1-0.6-0.2-0.8c-0.2-0.3-0.5-0.4-0.8-0.4
					c-0.3,0-0.6,0.1-0.8,0.4C75.2,4,75.1,4.3,75,4.6H77.2L77.2,4.6z"/>
			</g>
		</g>
	</g>
</g>
</svg>
